<svg version="1.1" id="Layer_1" xmlns="http://www.w3.org/2000/svg" xmlns:xlink="http://www.w3.org/1999/xlink" x="0px" y="0px"
	 width="194.086px" height="130px" viewBox="0 0 194.086 130" enable-background="new 0 0 194.086 130" xml:space="preserve">
<path fill="#00AEEF" d="M8.232,101.63c-2.914,0-5.693,0.578-8.232,1.621v1.116C0,118.525,11.477,130,25.634,130h3.229
	c0.682-2.106,1.055-4.351,1.055-6.685C29.918,111.339,20.209,101.63,8.232,101.63z M101.629,0H56.853
	c49.132,19.389,83.896,67.293,83.896,123.308c0,2.244-0.056,4.476-0.168,6.692h22.189c0.094-2.219,0.153-4.45,0.153-6.692
	C162.924,72.967,138.866,28.248,101.629,0z M168.451,0h-18.34c22.849,26.267,38.524,58.935,43.975,94.959V25.635
	C194.086,11.476,182.609,0,168.451,0z"/>
<path fill="#44C8F5" d="M8.232,21.085c-2.65,0-5.277,0.102-7.875,0.3C0.126,22.768,0,24.186,0,25.635v15.104
	c2.708-0.266,5.454-0.405,8.232-0.405c45.828,0,82.98,37.154,82.98,82.977c0,2.252-0.094,4.481-0.268,6.689h19.295
	c0.143-2.212,0.223-4.44,0.223-6.689C110.463,66.857,64.693,21.085,8.232,21.085z"/>
<path fill="#9DDCF9" d="M8.232,66.597c-2.798,0-5.543,0.211-8.232,0.603v16.368c2.658-0.548,5.412-0.837,8.232-0.837
	c22.412,0,40.584,18.171,40.584,40.582c0,2.279-0.199,4.511-0.559,6.687h16.287c0.258-2.195,0.405-4.422,0.405-6.687
	C64.95,91.992,39.557,66.597,8.232,66.597z"/>
</svg>